<svg
  xmlns="http://www.w3.org/2000/svg"
  width="32"
  height="32"
  viewBox="0 0 24 24"
  fill="white"
>
  <path d="M12 .297c-6.63 0-12 5.373-12 12 
           0 5.303 3.438 9.8 8.205 11.387.6.113.82-.258.82-.577 
           0-.285-.01-1.04-.015-2.04-3.338.724-4.042-1.61-4.042-1.61 
           -.546-1.387-1.333-1.757-1.333-1.757-1.089-.745.083-.729.083-.729 
           1.205.084 1.838 1.236 1.838 1.236 
           1.07 1.835 2.809 1.304 3.495.997.108-.775.418-1.305.762-1.605 
           -2.665-.305-5.466-1.332-5.466-5.931 
           0-1.31.469-2.381 1.236-3.221-.123-.303-.536-1.524.117-3.176 
           0 0 1.008-.322 3.301 1.23.957-.266 1.983-.399 3.003-.404 
           1.02.005 2.047.138 3.006.404 
           2.291-1.552 3.297-1.23 3.297-1.23 
           .655 1.653.242 2.874.119 3.176 
           .77.84 1.235 1.911 1.235 3.221 
           0 4.609-2.803 5.624-5.475 5.921 
           .43.372.823 1.102.823 2.222 
           0 1.606-.015 2.896-.015 3.286 
           0 .322.216.694.825.576C20.565 22.092 24 17.592 24 12.297 
           c0-6.627-5.373-12-12-12z"/>
</svg>
